<svg width="20" height="21" viewBox="0 0 20 21" fill="none" xmlns="http://www.w3.org/2000/svg">
<path d="M10.0007 6.74947C10.9173 6.74947 11.6673 5.99947 11.6673 5.0828C11.6673 4.16614 10.9173 3.41614 10.0007 3.41614C9.08398 3.41614 8.33398 4.16614 8.33398 5.0828C8.33398 5.99947 9.08398 6.74947 10.0007 6.74947ZM10.0007 8.41614C9.08398 8.41614 8.33398 9.16614 8.33398 10.0828C8.33398 10.9995 9.08398 11.7495 10.0007 11.7495C10.9173 11.7495 11.6673 10.9995 11.6673 10.0828C11.6673 9.16614 10.9173 8.41614 10.0007 8.41614ZM10.0007 13.4161C9.08398 13.4161 8.33398 14.1661 8.33398 15.0828C8.33398 15.9995 9.08398 16.7495 10.0007 16.7495C10.9173 16.7495 11.6673 15.9995 11.6673 15.0828C11.6673 14.1661 10.9173 13.4161 10.0007 13.4161Z" fill="#2E303B"/>
</svg>
