<svg width="20" height="21" viewBox="0 0 20 21" fill="none" xmlns="http://www.w3.org/2000/svg">
<path d="M16.6673 7.5828V5.0828H15.0006V7.5828H12.5007V9.24947H15.0006V11.7495H16.6673V9.24947H19.1673V7.5828H16.6673ZM7.50065 10.0828C9.34232 10.0828 10.834 8.59114 10.834 6.74947C10.834 4.9078 9.34232 3.41614 7.50065 3.41614C5.65898 3.41614 4.16732 4.9078 4.16732 6.74947C4.16732 8.59114 5.65898 10.0828 7.50065 10.0828ZM7.50065 5.0828C8.41732 5.0828 9.16732 5.8328 9.16732 6.74947C9.16732 7.66614 8.41732 8.41614 7.50065 8.41614C6.58398 8.41614 5.83398 7.66614 5.83398 6.74947C5.83398 5.8328 6.58398 5.0828 7.50065 5.0828ZM12.8257 12.2161C11.4257 11.4995 9.60898 10.9161 7.50065 10.9161C5.39232 10.9161 3.57565 11.4995 2.17565 12.2161C1.34232 12.6411 0.833984 13.4995 0.833984 14.4328V16.7495H14.1673V14.4328C14.1673 13.4995 13.659 12.6411 12.8257 12.2161ZM12.5007 15.0828H2.50065V14.4328C2.50065 14.1161 2.66732 13.8328 2.93398 13.6995C3.92565 13.1911 5.52565 12.5828 7.50065 12.5828C9.47565 12.5828 11.0756 13.1911 12.0673 13.6995C12.334 13.8328 12.5007 14.1161 12.5007 14.4328V15.0828Z" fill="#2E303B"/>
</svg>
