<svg width="24" height="25" viewBox="0 0 24 25" fill="none" xmlns="http://www.w3.org/2000/svg">
<path d="M19 1.58276H5C3.89 1.58276 3 2.48276 3 3.58276V17.5828C3 18.6828 3.89 19.5828 5 19.5828H9L12 22.5828L15 19.5828H19C20.1 19.5828 21 18.6828 21 17.5828V3.58276C21 2.48276 20.1 1.58276 19 1.58276ZM19 17.5828H14.17L12 19.7528L9.83 17.5828H5V3.58276H19V17.5828ZM12 10.5828C13.65 10.5828 15 9.23276 15 7.58276C15 5.93276 13.65 4.58276 12 4.58276C10.35 4.58276 9 5.93276 9 7.58276C9 9.23276 10.35 10.5828 12 10.5828ZM12 6.58276C12.55 6.58276 13 7.03276 13 7.58276C13 8.13276 12.55 8.58276 12 8.58276C11.45 8.58276 11 8.13276 11 7.58276C11 7.03276 11.45 6.58276 12 6.58276ZM18 15.1628C18 12.6628 14.03 11.5828 12 11.5828C9.97 11.5828 6 12.6628 6 15.1628V16.5828H18V15.1628ZM8.48 14.5828C9.22 14.0728 10.71 13.5828 12 13.5828C13.29 13.5828 14.78 14.0728 15.52 14.5828H8.48Z" fill="#444859"/>
</svg>
